<?xml version="1.0" encoding="utf-8"?>
<!-- Generator: Adobe Illustrator 18.1.1, SVG Export Plug-In . SVG Version: 6.00 Build 0)  -->
<svg version="1.1" id="Layer_1" xmlns="http://www.w3.org/2000/svg" xmlns:xlink="http://www.w3.org/1999/xlink" x="0px" y="0px"
	 viewBox="0 0 48 48" enable-background="new 0 0 48 48" xml:space="preserve">
<path fill="#E3211D" d="M11.7,21.1c-1.1,0.2-2.2,0.5-3.3,0.7c-1.4,0.3-2.8,0.6-4.2,0.9c-0.1,0-0.2,0-0.2-0.1c-0.5-2.3-1-4.5-1.4-6.8
	c-0.4-2-0.8-4-1.3-6C1.2,9.1,1,8.3,0.9,7.6c0,0,0-0.1,0-0.1c0,0,0-0.1,0-0.1c0,0,0.1,0,0.1,0c2.4-0.5,4.8-1,7.2-1.5
	c2.3-0.5,4.5-1,6.8-1.4c0.4-0.1,0.8-0.1,1.1-0.3c0,0,0.1,0,0.1,0c0,0.3,0.1,0.6,0.2,0.9c0.5,2.2,0.9,4.4,1.4,6.6c0,0,0,0.1,0,0.1
	c0,0-0.1,0-0.1,0s1.9,4.2,1.4,4.3c-0.9,0.2-1.3-2.1-2.2-1.9c-1,0.2-2.1,4-3.1,4.3c-0.1,0,0.9,5.9-1.7-0.5c0.2,1.1,0.5-1.5,0.8-0.4
	C13.1,19.1,11.4,19.7,11.7,21.1z"/>
<g>
	<path d="M360.8,243.7c0,11.8,0,23.6,0,35.3c0,26.8,0,53.6,0,80.4c0,0.4,0,0.8,0,1.2c-5.4,0-10.7,0-16.1,0c-0.8-2.7-1.6-5.5-2.4-8.2
		c-5.1-17.6-10.2-35.2-15.2-52.8c-0.4-1.5-0.9-3-1.3-4.6c-0.2-0.6-0.4-1-1.2-0.6c0,22,0,44.1,0,66.2c-5.6,0-11,0-16.6,0
		c0-0.4,0-0.7,0-1.1c0-38.2,0-76.4,0-114.6c0-0.4,0-0.8,0-1.2c5.4,0,10.8,0,16.2,0c0,0.2,0,0.4,0.1,0.5
		c6.2,21.7,12.5,43.4,18.7,65.1c0.2,0.6,0.5,1,1.2,0.6c0-0.4,0-0.8,0-1.3c0-21.2,0-42.5,0-63.7c0-0.4,0-0.9,0-1.3
		C349.8,243.7,355.3,243.7,360.8,243.7z"/>
	<path d="M198,243.7c1.7,0.2,3.4,0.3,5.1,0.6c5.3,0.7,10.3,2.1,14.6,5.5c4.4,3.4,6.9,8,8.1,13.3c1.6,6.8,1.8,13.7,0.5,20.6
		c-0.8,4.5-3.3,8.1-6.3,11.4c-1.2,1.3-2.4,2.7-3.7,4.1c-0.1-0.1-0.2-0.2-0.3-0.3c0,0.1,0,0.1,0.1,0.2c4.4,2.5,7,6.6,9.1,11.1
		c2.2,4.9,3.1,10.1,3.2,15.4c0.1,5.6-0.2,11.2-1.9,16.6c-2,6.3-5.4,11.6-11.4,14.9c-3.9,2.2-8.1,3.4-12.6,3.5c-8,0.2-16,0.1-24,0.2
		c-0.1,0-0.1,0-0.3-0.1c0-0.4,0-0.8,0-1.2c0-38.1,0-76.3,0-114.4c0-0.4,0-0.9-0.1-1.3C184.7,243.7,191.4,243.7,198,243.7z
		 M196.3,343.5c5.8,0.8,10.1-1.9,11.9-7.3c1.4-4.3,1.6-8.8,1.4-13.3c-0.2-3.3-0.6-6.6-2.1-9.6c-2.2-4.6-6.6-6.2-11.2-5.5
		C196.3,319.7,196.3,331.6,196.3,343.5z M196.3,291.9c0.9,0,1.7,0.1,2.4,0c4.6-0.4,8-2.4,9.5-6.9c0.7-2,1-4.3,1.3-6.4
		c0.4-3.6,0.1-7.2-1.1-10.7c-2-5.7-7.3-7.6-12.1-7C196.3,271.2,196.3,281.5,196.3,291.9z"/>
	<path d="M135.9,243.7c1.5,0.2,2.9,0.3,4.4,0.6c6,0.9,11.4,3.1,15.6,7.6c3.2,3.5,5.1,7.7,6.2,12.3c0.8,3.4,1.2,6.8,1.4,10.3
		c0.2,5.9-0.2,11.8-1.9,17.5c-1.3,4.3-3.3,8.3-6.9,11.2c-0.9,0.7-1.1,1.2-0.9,2.3c2.2,10.7,4.4,21.4,6.6,32.2
		c1.5,7.4,3,14.8,4.6,22.3c0,0.2,0.1,0.5,0.1,0.8c-6,0-12,0-18,0c-0.5-2.4-0.9-4.8-1.4-7.2c-1.6-8.4-3.2-16.7-4.8-25.1
		c-1-5.4-2.1-10.7-3-16.1c-0.1-0.7-0.3-1-1.1-1c-1.3,0.1-2.5,0-3.9,0c0,16.4,0,32.8,0,49.3c-6.1,0-12,0-18.1,0c0-0.4,0-0.8,0-1.2
		c0-38.3,0-76.5,0-114.8c0-0.3,0-0.7,0-1C121.7,243.7,128.8,243.7,135.9,243.7z M132.8,295.4c6.2,0.1,10.2-2.5,11.9-7.9
		c0.7-2.2,1.1-4.5,1.3-6.8c0.4-4.4,0.1-8.7-1.5-12.9c-1.9-5.1-6.1-7.5-11.7-6.9C132.8,272.3,132.8,283.8,132.8,295.4z"/>
	<path d="M98.3,243.7c0,22.3,0,44.6,0,67c0,8.6,0.1,17.1,0,25.7c-0.1,6.5-1.8,12.6-5.9,17.7c-3.9,4.8-9.1,7.4-15.3,7.8
		c-3.6,0.2-7.1,0.1-10.6-0.8c-5.8-1.6-10-5.3-12.8-10.5c-2.4-4.5-3.5-9.3-3.5-14.4c0-30.3,0-60.7,0-91c0-0.4,0-0.9,0-1.3
		c6,0,12,0,18,0c0,0.4,0,0.7,0,1.1c0,30.7,0,61.3,0,92c0,0.4,0,0.8,0,1.2c0.1,1.8,0.6,3.5,1.6,5c1.2,1.8,2.9,2.5,5,2.3
		c2.1-0.2,3.5-1.4,4.3-3.3c0.7-1.7,1-3.6,1-5.4c0-30.5,0-61,0-91.5c0-0.4,0-0.9,0-1.3C86.3,243.7,92.3,243.7,98.3,243.7z"/>
	<path d="M278,243.7c0.3,2.3,0.7,4.6,1,6.9c1,6,1.9,12.1,2.9,18.1c1,6,1.9,12.1,2.9,18.1c1,6.1,1.9,12.2,2.9,18.3
		c1,6.4,2.1,12.9,3.1,19.3c1,6.4,2,12.8,3,19.2c0.8,5.3,1.7,10.6,2.5,15.9c0.1,0.4,0.1,0.7,0.1,1.1c-5.9,0-11.7,0-17.5,0
		c-1.1-7.9-2.2-15.8-3.3-23.7c-5.8,0-11.6,0-17.4,0c-1.1,7.9-2.2,15.8-3.3,23.7c-5.9,0-11.6,0-17.6,0c0.2-1.4,0.4-2.9,0.7-4.3
		c1.1-6.9,2.2-13.7,3.3-20.6c1-6.4,2.1-12.9,3.1-19.3c1-6,1.9-12,2.9-18.1c1-6,1.9-12.1,2.9-18.1c1-6.1,1.9-12.2,2.9-18.2
		c0.9-6,1.9-12,2.8-18c0-0.1,0.1-0.2,0.1-0.3C263.3,243.7,270.6,243.7,278,243.7z M260.7,318.6c4.2,0,8.2,0,12.4,0
		c-1.9-13.3-3.8-26.6-5.6-39.8c-0.8-0.2-1.1-0.1-1.2,0.6c-0.8,5.5-1.6,10.9-2.4,16.3c-0.7,5.2-1.5,10.4-2.2,15.5
		C261.4,313.7,261,316.1,260.7,318.6z"/>
	<path d="M455.9,373.4c-1.4,4.3-5,5.6-8.9,6.4c-6.7,1.4-13.5,2.3-20.4,2.3c-12.8,0.1-25.6,0.1-38.4,0.2c-7.1,0-14.1,0-21.2,0
		c-17.2,0-34.4,0.1-51.6,0.1c-5.7,0-11.4,0-17.1,0c-17.3,0-34.5,0.1-51.8,0.1c-5.6,0-11.3,0-16.9,0c-17.3,0-34.6,0.1-51.9,0.1
		c-5.5,0-11.1,0-16.6,0c-17.4,0-34.8,0.1-52.2,0.1c-4.2,0-8.4,0-12.6,0c-18.7,0-37.4,0.1-56.1,0.1c-5.8,0-11.5,0-17.3,0
		c-14,0-27.9,0.2-41.8,0c-4.4-0.1-8.7-1.1-13.1-1.7c-1.8-0.3-3.7-0.7-5.5-1.1c-3.4-0.8-5.8-2.7-6.7-6.2c-0.2-0.7,0-1.6,0.3-2.3
		c0.3-0.9,1.1-1.3,2.1-1.2c0.4,0.1,0.7,0,1.1,0c1.3,0.1,2.4,0.4,3.4,1.5c2.7,3,6.3,4.2,10.2,4.8c5,0.8,10,0.5,14.9,0.6
		c4.8,0,9.6,0,14.4,0c7.5,0,15-0.1,22.5-0.1c9.5,0,19,0,28.5-0.1c4.2,0,8.4,0,12.6,0c13.2,0,26.5-0.1,39.7-0.1c3.6,0,7.1,0,10.7,0
		c13.9,0,27.7-0.1,41.6-0.1c4,0,8,0,12,0c13.4,0,26.8-0.1,40.3-0.1c3.2,0,6.4,0,9.6,0c14.2,0,28.5-0.1,42.7-0.1c3.7,0,7.3,0,11,0
		c13.8,0,27.5-0.1,41.3-0.1c2.8,0,5.5,0,8.3,0c14.7-0.1,29.3-0.1,44-0.1c3,0,6.1,0,9.1,0c14.4-0.1,28.7-0.1,43.1-0.1
		c4.2,0,8.4,0,12.6-0.1c3.7-0.1,7.5-0.1,11.1-1.2c2.6-0.8,4.9-2.1,6.7-4.2c0.9-1,3.8-1.9,4.9-1.2c0.7,0.4,1.1,1.3,1.6,1.9
		C455.9,372.1,455.9,372.7,455.9,373.4z"/>
	<path d="M22.7,425.4c-1.3,0.4-2.3-0.8-3.4-2c-4.1-5-2.6-12,3.3-15.2c2.8-1.6,5.8-1.6,8.8-0.8c4.4,1.1,6.6,4.5,6.2,9.1
		c-0.5,5.5-4.1,7.9-9.2,8.4C26.7,425,25,425.2,22.7,425.4z"/>
	<path d="M380.8,425.3C380.8,425.3,380.8,425.3,380.8,425.3c-2.4,0.5-3.7-0.8-4.9-2.4c-3.2-4.5-2.2-10.3,2.4-13.8
		c3.2-2.4,6.8-2.6,10.5-1.6c4.1,1.1,6.3,4.5,5.8,8.9c-0.6,5.2-3.4,8-8.7,8.5C384.2,425.1,382.5,425.2,380.8,425.3
		C380.8,425.4,380.8,425.3,380.8,425.3z"/>
	<path d="M340.2,429.1c0,0.3,0,0.7,0,1c0,4.5,0,9,0,13.5c0,0.4,0,0.8-0.2,1.1c-0.3,0.3-0.7,0.7-1.1,0.8c-0.4,0-0.9-0.4-1.1-0.7
		c-0.2-0.2-0.2-0.7-0.2-1.1c0-4.4,0-8.7,0-13.1c0-0.3,0-0.7,0-1c-0.8-0.4-1.9-0.2-2-1.3c-0.1-1.3,1-1.5,2-1.9c0-0.3,0-0.6,0-1
		c0-7,0-14,0-21c0-0.7-0.1-1.2-0.9-1.4c-0.8-0.2-1.1-0.8-1.1-1.6c0-0.8,0.7-1,1.2-1c3.2-0.2,6.5-0.5,9.7,0.6c3.2,1,4.7,3,4.8,6.4
		c0.2,4.5,0.2,9.1,0.3,13.6c0.1,3.1-1.1,5.5-3.8,7.1c-0.1,0.1-0.2,0.2-0.2,0.2c1.2,1.1,2.6,2,3.6,3.3c3.1,3.6,5,7.7,4.8,12.6
		c0,0.3,0,0.6-0.1,0.9c-0.1,0.6-0.5,1-1.1,0.9c-0.4-0.1-0.8-0.5-1-0.9c-0.5-1.8-0.9-3.6-1.4-5.4c-0.7-2.7-1.7-5.3-3.9-7.2
		C346.4,430.2,344.3,429.4,340.2,429.1z M340.2,402.9c0,0.5,0,0.8,0,1.1c0,6.8,0,13.5,0,20.3c0,2.7,0,2.7,2.8,2.6
		c3.4-0.1,5.6-1.8,5.9-4.8c0.4-4.6,0.6-9.1,0.2-13.7c-0.2-2.5-1.4-4.1-3.6-4.8c-1-0.3-2.1-0.5-3.2-0.6
		C341.6,402.8,340.9,402.9,340.2,402.9z"/>
	<path d="M184.5,427.8c0.8,0.6,1.6,1,2.3,1.6c4.1,3.8,6.4,8.4,6.4,14c0,1.3-0.3,1.9-1,1.9c-1.2,0.1-1.1-0.9-1.3-1.6
		c-0.5-1.9-0.9-3.8-1.4-5.7c-1.5-5.6-5.9-9.5-12.2-9.5c0,0.3,0,0.7,0,1c0,4.6,0,9.1,0,13.7c0,0.4-0.1,1-0.4,1.3
		c-0.6,0.7-1.7,0.5-2-0.4c-0.1-0.3-0.1-0.7-0.1-1.1c0-4.4,0-8.8,0-13.2c0-0.6-0.1-1-0.8-1.1c-0.6-0.1-1.2-0.3-1.2-1.1
		c0-0.7,0.3-1.3,1-1.5c0.8-0.2,1-0.7,1-1.5c0-7,0-14.1,0-21.1c0-0.6,0-1-0.7-1.1c-0.3-0.1-0.7-0.3-0.9-0.6c-0.7-0.8-0.5-1.7,0.6-1.9
		c2.6-0.4,5.2-0.6,7.8-0.1c1.8,0.3,3.6,0.8,5,2.1c1.1,1,1.7,2.2,1.9,3.6c0.6,5.4,0.6,10.8,0.3,16.1c-0.1,2.4-1.4,4.3-3.5,5.6
		C184.9,427.5,184.7,427.6,184.5,427.8z M177.2,402.3c0,0.4,0,0.8,0,1.1c0,6.7,0,13.4,0,20.2c0,2.8,0.2,3,3.1,2.8
		c3.5-0.3,5.5-1.9,5.7-5.2c0.2-4.5,0.2-9,0.1-13.5c0-2.1-1.3-3.6-3.3-4.4C181,402.4,179.2,402.3,177.2,402.3z"/>
	<path d="M70,400.5c2.3,0.1,4.6,0.5,6.8,1.2c0.6,0.2,0.8,0.5,0.6,1.1c-0.6,1.9-2.3,2.7-4.1,1.9c-3.7-1.7-7.4-1.5-11,0.5
		c-3.8,2.1-5.7,9.6,0.1,13c1.2,0.7,2.5,1.3,3.8,1.8c2.3,1,4.7,1.8,6.9,3c3.2,1.6,5.7,4,6.3,7.7c1,6.4-2.3,11.6-8.5,13.4
		c-4.2,1.2-8.3,1.1-12.4-0.3c-0.8-0.3-0.9-0.7-0.6-1.4c0.7-1.8,2.2-2.4,4-1.6c3.9,1.7,7.8,1.7,11.4-0.8c4.3-3,4.3-9.4-0.1-12.3
		c-2.1-1.4-4.5-2.3-6.9-3.2c-2.4-1-4.8-1.9-6.9-3.6c-3.1-2.4-4.2-5.6-3.8-9.4c0.6-6.5,5.5-9.5,10-10.4
		C67.1,400.8,68.6,400.7,70,400.5z"/>
	<path d="M134.1,443.6c-1.8,0.4-3.5,0.9-5.2,1.1c-2.3,0.3-4.6,0.4-6.8,0.5c-1.8,0-3.2-0.9-4.2-2.5c-1.2-2.1-1.5-4.5-1.5-6.8
		c0.1-4.6,0.3-9.2,0.5-13.7c0.1-1.9,0.1-3.8,0.1-5.7c0.1-3.7,0.2-7.3,0.3-11c0-0.5-0.1-1.1-0.3-1.6c-0.4-1.1-0.3-1.7,0.5-2.1
		c0.9-0.5,2.1-0.1,2.5,0.8c0.2,0.5,0.3,1.1,0.3,1.6c-0.3,6.6-0.7,13.2-0.9,19.9c-0.1,4-0.1,8.1,0,12.2c0,1.2,0.3,2.5,0.6,3.6
		c0.6,2.2,1.8,2.9,4.1,2.7c3.4-0.3,6.6-1.3,9.8-2.4c0.2-0.1,0.5-0.5,0.5-0.8c0.1-1.2,0-2.4,0-3.6c0-10.8,0-21.6,0-32.5
		c0-0.2,0-0.5,0-0.7c0-1,0.5-1.6,1.3-1.6c0.8,0,1.3,0.6,1.3,1.6c0,13.2,0,26.5,0,39.7c0,0.4,0,0.8,0,1.2c0,1.2-0.3,1.7-1.2,1.8
		C134.8,445.2,134.4,444.8,134.1,443.6z"/>
	<path d="M283.4,404c-0.5-0.4-1.1-0.7-1.3-1.1c-0.6-1,0.1-2,1.3-2.1c2.8-0.1,5.6-0.1,8.4,0c2.3,0,4.6,0.2,6.9,0.4
		c0.6,0.1,1.3,0.4,1.9,0.7c0.6,0.3,0.6,0.8,0.2,1.3c-0.8,1-1.6,1.1-2.7,0.6c-0.5-0.2-1.1-0.3-1.6-0.3c-3.1-0.1-6.2-0.2-9.3-0.3
		c-0.3,0-0.6,0.1-0.9,0.1c0,5.7,0,11.4,0,17.3c1.5,0,3,0,4.5,0c1.8-0.1,3.6-0.2,5.5-0.2c0.5,0,1.1,0.2,1.3,0.6c0.2,0.3,0,1-0.3,1.4
		c-0.8,1.3-2,1.8-3.6,1.7c-2.1-0.1-4.3-0.1-6.4-0.2c-0.3,0-0.6,0-1,0c0,0.3,0,0.6,0,0.8c0,5.4,0,10.7,0,16.1c0,0.7,0.2,0.9,0.9,1
		c3.7,0.3,7.4-0.1,11-0.5c0.7-0.1,1.5,0,2.2,0.2c0.3,0.1,0.7,0.6,0.7,0.9c0,0.3-0.4,0.8-0.7,0.8c-1.6,0.4-3.2,0.8-4.8,0.9
		c-3.9,0.1-7.7,0.1-11.6,0.1c-0.8,0-1.5-0.1-1.8-1c-0.2-0.9,0.2-1.5,1.1-1.9c0.2-0.1,0.4-0.5,0.4-0.7c0-5.5,0-11,0-16.5
		c0-0.3-0.2-0.6-0.4-0.8c-0.6-0.6-0.6-1.1-0.1-1.8c0.3-0.4,0.5-0.9,0.5-1.4c0-5.2,0-10.4,0-15.6C283.4,404.2,283.4,404,283.4,404z"
		/>
	<path d="M231.9,402.7c0,6.4,0,12.7,0,19.2c1.4-0.1,2.8-0.2,4.2-0.3c0.7-0.1,1.6-0.2,2,0.5c0.4,0.8-0.3,1.4-0.7,1.9
		c-0.7,0.9-1.7,1.2-2.8,1.1c-0.8-0.1-1.7-0.1-2.7-0.2c0,0.4,0,0.8,0,1.1c0,5.7,0,11.5,0,17.2c0,0.2,0,0.5,0,0.7
		c-0.1,0.8-0.4,1.3-1.2,1.4c-0.7,0.1-1.2-0.5-1.3-1.3c0-0.3,0-0.6,0-0.9c0-5.9,0-11.7,0-17.6c0-0.3,0.1-0.7,0-0.8
		c-0.9-0.9-0.6-1.7,0-2.7c0.1-0.2,0.1-0.5,0.1-0.8c0-5.8,0-11.6,0-17.4c0-0.5-0.1-0.9-0.5-1.3c-0.4-0.3-0.6-1-0.5-1.5
		c0-0.4,0.6-0.7,1-1c0.3-0.2,0.7-0.1,1.1-0.1c3.9,0,7.8,0,11.7,0.1c1.2,0,2.5,0.3,3.7,0.5c1,0.2,1.6,0.8,1.4,1.4
		c-0.2,0.8-1.7,1.7-2.3,1.3c-1.4-0.8-2.9-0.7-4.3-0.8C237.6,402.4,234.8,402.3,231.9,402.7z"/>
</g>
<polygon fill="#FFFFFF" points="45.5,33.6 16.8,42.5 11.2,13.9 40,8 "/>
<path fill="#0957A4" d="M11.7,21.1c-0.3-1.4-0.6-2.7-0.9-4.1c-0.2-1.1-0.5-2.3-0.7-3.4c0-0.1,0-0.1,0.1-0.2c1-0.2,2-0.4,3-0.6
	c0.9-0.2,1.9-0.4,2.8-0.6c0.5-0.1,1.1-0.2,1.6-0.3c0,0,0.1,0,0.1,0c0.6-0.1,1.2-0.3,1.8-0.4c0.6-0.1,1.1-0.2,1.7-0.4
	c0.6-0.1,1.2-0.3,1.8-0.4c0.5-0.1,1.1-0.2,1.6-0.3c0.7-0.2,1.5-0.3,2.2-0.5c0.6-0.1,1.1-0.3,1.7-0.4c0.6-0.1,1.3-0.3,1.9-0.4
	C31,9,31.5,8.9,32,8.8c0.7-0.1,1.4-0.3,2.1-0.4c0.6-0.1,1.2-0.3,1.8-0.4c0.8-0.2,1.5-0.3,2.3-0.5c0.8-0.2,1.5-0.3,2.3-0.5
	c0.1,0,0.1,0,0.2,0c0.1,0,0.1,0,0.1,0.1c0.1,0.4,0.2,0.8,0.3,1.2c0.1,0.5,0.2,1,0.3,1.4c0.1,0.7,0.3,1.3,0.4,2
	c0.1,0.5,0.2,0.9,0.3,1.4c0.1,0.7,0.3,1.4,0.4,2.1c0.1,0.6,0.3,1.2,0.4,1.9c0.1,0.6,0.2,1.2,0.4,1.8c0.1,0.6,0.3,1.1,0.4,1.7
	c0.1,0.6,0.3,1.3,0.4,1.9c0.1,0.5,0.2,0.9,0.3,1.4c0.1,0.7,0.3,1.4,0.4,2.1c0.1,0.6,0.3,1.2,0.4,1.9c0.1,0.6,0.2,1.2,0.4,1.8
	c0.1,0.6,0.3,1.1,0.4,1.7c0.1,0.6,0.2,1.2,0.4,1.8c0.1,0.6,0.2,1.1,0.4,1.7c0.1,0.6,0.3,1.2,0.4,1.8c0.1,0.2,0.1,0.5,0.1,0.7
	c0,0.1,0.1,0.2-0.1,0.2c-1.1,0.2-2.2,0.5-3.2,0.7c-1,0.2-2,0.4-3,0.6c-1,0.2-2,0.4-2.9,0.6c-1,0.2-2.1,0.4-3.1,0.7
	c-0.8,0.2-1.5,0.3-2.3,0.5c-0.8,0.2-1.6,0.3-2.4,0.5c-0.6,0.1-1.2,0.3-1.9,0.4c-0.7,0.2-1.5,0.3-2.2,0.5c-0.8,0.2-1.5,0.3-2.3,0.5
	c-0.8,0.2-1.6,0.3-2.4,0.5c-0.7,0.2-1.4,0.3-2.2,0.5c-0.8,0.2-1.5,0.3-2.3,0.5c-0.1,0-0.2,0-0.2-0.1c-0.2-0.9-0.4-1.7-0.5-2.6
	c-0.2-0.9-0.4-1.9-0.6-2.8c-0.2-0.7-0.3-1.4-0.5-2.2c-0.2-0.8-0.3-1.6-0.5-2.4c-0.2-0.8-0.3-1.5-0.5-2.3c-0.2-0.7-0.3-1.5-0.5-2.2
	c-0.1-0.6-0.3-1.2-0.4-1.8c-0.1-0.6-0.3-1.2-0.4-1.8c-0.1-0.6-0.2-1.1-0.4-1.7c-0.1-0.6-0.3-1.3-0.4-1.9
	C11.8,21.6,11.8,21.4,11.7,21.1z M40,10.6c-0.4,0-0.7,0.2-1.1,0.2c-0.1,0-0.2,0.1-0.2,0.2c-0.1,0.2-0.2,0.4-0.3,0.6
	c-0.2,0.3-0.3,0.7-0.5,1.1c-0.1-0.5-0.2-1-0.3-1.4c-0.1-0.6-0.2-1.2-0.4-1.7c0-0.1-0.1-0.1-0.2-0.1c-0.3,0.1-0.6,0.1-0.9,0.2
	c-0.1,0-0.1,0-0.1,0.2c0.2,0.8,0.3,1.5,0.5,2.3c0.2,1.1,0.5,2.3,0.7,3.4c0,0.1,0,0.1,0.1,0.1c0.3-0.1,0.6-0.1,0.9-0.2
	c0.1,0,0.1,0,0.1-0.1c-0.1-0.3-0.1-0.7-0.2-1c0-0.1,0-0.1,0-0.2c0.1-0.2,0.2-0.4,0.3-0.6c0,0,0,0.1,0,0.1c0.4,0.5,0.8,0.9,1.2,1.4
	c0,0,0.1,0.1,0.1,0.1c0.4-0.1,0.8-0.2,1.2-0.3c0-0.1-0.1-0.1-0.1-0.1c-0.6-0.7-1.2-1.4-1.8-2.1c-0.1-0.1-0.1-0.1,0-0.2
	c0.1-0.2,0.2-0.4,0.3-0.6C39.6,11.4,39.8,11,40,10.6C40,10.6,40,10.6,40,10.6C40,10.6,40,10.6,40,10.6C40,10.6,40,10.6,40,10.6z
	 M24,24.9c0.1,0,0.1,0.1,0.2,0.1c0.9,0.4,1.8-0.1,2-1c0.1-0.5,0.1-1.1,0-1.6c-0.1-0.5-0.3-1-0.7-1.4c-0.6-0.6-1.5-0.7-2.1,0.1
	c0,0.1-0.1,0.1-0.1,0.2c0-0.1-0.1-0.2-0.1-0.3c0-0.1-0.1-0.1-0.2-0.1c-0.3,0.1-0.6,0.1-0.8,0.2c-0.1,0-0.1,0.1-0.1,0.2
	c0.2,1,0.4,2,0.6,3c0.2,0.8,0.4,1.7,0.5,2.5c0,0.1,0,0.1,0.1,0.1c0.3-0.1,0.6-0.1,0.9-0.2c0.1,0,0.1-0.1,0.1-0.1
	c0-0.2-0.1-0.4-0.1-0.6C24.2,25.6,24.1,25.3,24,24.9z M33.4,12.4c0-0.1-0.1-0.2-0.1-0.3c0-0.1-0.1-0.1-0.1-0.1
	c-0.3,0.1-0.6,0.1-0.9,0.2c-0.1,0-0.1,0.1-0.1,0.2c0.3,1.3,0.6,2.7,0.9,4c0,0.1,0.1,0.1,0.2,0.1c0.3-0.1,0.6-0.1,0.8-0.2
	c0.2,0,0.2-0.1,0.1-0.2c-0.2-0.9-0.4-1.8-0.6-2.7c0-0.1,0-0.1,0-0.1c0.1-0.2,0.2-0.4,0.4-0.5c0.4-0.3,0.7-0.2,0.8,0.3
	c0.1,0.3,0.1,0.6,0.2,0.8c0.1,0.7,0.3,1.4,0.4,2c0,0.1,0,0.1,0.1,0.1c0.3-0.1,0.6-0.1,0.9-0.2c0.1,0,0.1,0,0.1-0.1
	c-0.2-0.7-0.3-1.4-0.4-2.1c-0.1-0.4-0.1-0.8-0.3-1.2c-0.1-0.4-0.4-0.7-0.8-0.8c-0.5-0.1-0.9,0.1-1.2,0.3
	C33.7,12.1,33.5,12.3,33.4,12.4z M15.6,16.2c-0.1-0.1-0.1-0.2-0.1-0.2c0-0.1-0.1-0.2-0.2-0.1c-0.3,0.1-0.5,0.1-0.8,0.2
	c-0.2,0-0.2,0.1-0.1,0.2c0.1,0.4,0.2,0.8,0.3,1.2c0.2,0.9,0.4,1.9,0.6,2.8c0,0.1,0.1,0.2,0.2,0.1c0.3-0.1,0.6-0.1,0.8-0.2
	c0.1,0,0.1,0,0.1-0.2c-0.2-0.9-0.4-1.8-0.6-2.8c0-0.1,0-0.1,0-0.2c0.1-0.1,0.2-0.3,0.3-0.4c0.3-0.3,0.8-0.3,0.9,0.2c0,0,0,0.1,0,0.1
	c0.2,0.9,0.4,1.8,0.6,2.7c0,0.1,0.1,0.1,0.2,0.1c0.3-0.1,0.5-0.1,0.8-0.2c0.2,0,0.2-0.1,0.1-0.2c-0.2-0.7-0.3-1.5-0.5-2.2
	c-0.1-0.4-0.1-0.7-0.3-1.1c-0.2-0.5-0.7-0.7-1.2-0.6c-0.4,0.1-0.7,0.2-0.9,0.5C15.8,16,15.7,16.1,15.6,16.2z M21.4,16.1
	c0,0.4,0.1,0.9,0.3,1.3c0.5,1.2,1.6,1.6,2.7,1c0.6-0.3,0.9-0.8,1-1.4c0-0.1,0-0.1-0.1-0.1c-0.3,0-0.6,0-0.9,0c-0.1,0-0.1,0-0.1,0.1
	c0,0.1,0,0.1,0,0.2c-0.1,0.4-0.4,0.6-0.8,0.6c-0.4,0-0.8-0.5-0.8-0.9c0-0.1,0.1-0.1,0.1-0.1c0.3-0.1,0.5-0.1,0.8-0.2
	c0.5-0.1,1-0.2,1.6-0.3c0.1,0,0.1,0,0.1-0.1c-0.1-0.4-0.2-0.9-0.5-1.3c-0.2-0.4-0.5-0.6-1-0.7c-0.6-0.1-1.1,0-1.6,0.3
	C21.6,14.8,21.4,15.4,21.4,16.1z M31.3,19.1c-0.1,0-0.2,0-0.3,0c-0.7,0.1-1.2,0.4-1.5,1.1c-0.4,0.9-0.2,1.8,0.4,2.7
	c0.5,0.8,1.4,1,2.3,0.6c0.6-0.3,1.1-0.8,1.2-1.5c0-0.1,0-0.1-0.1-0.1c-0.2,0-0.4,0-0.7,0c-0.1,0-0.2,0-0.3,0c-0.1,0,0,0.2-0.1,0.3
	c-0.1,0.6-0.7,0.8-1.2,0.4c-0.2-0.2-0.3-0.4-0.4-0.6c-0.1-0.2-0.1-0.2,0.1-0.2c0.8-0.2,1.5-0.3,2.3-0.5c0.1,0,0.1-0.1,0.1-0.1
	c-0.1-0.4-0.2-0.8-0.4-1.2C32.5,19.5,32,19.1,31.3,19.1z M18.2,25.2c-0.3,0-0.6,0-0.9,0c-0.1,0-0.1,0-0.1,0.1c0,0.3-0.2,0.6-0.5,0.7
	c-0.3,0.1-0.6,0-0.8-0.2c-0.1-0.1-0.2-0.3-0.3-0.5c0-0.1,0-0.2,0.1-0.2c0.8-0.2,1.6-0.3,2.3-0.5c0.1,0,0.1-0.1,0.1-0.2
	c-0.1-0.3-0.2-0.6-0.3-0.9c-0.1-0.3-0.3-0.6-0.6-0.8c-0.4-0.3-0.8-0.3-1.3-0.3c-0.7,0.1-1.3,0.5-1.5,1.2c-0.2,0.7-0.1,1.4,0.1,2
	c0.2,0.4,0.5,0.8,0.9,1.1C16.5,27.3,18.1,26.6,18.2,25.2z M22.6,25.5C22.5,25.5,22.5,25.5,22.6,25.5c-0.7-0.7-1.2-1.3-1.8-1.8
	c-0.1-0.1-0.1-0.1,0-0.2c0.1-0.1,0.1-0.2,0.2-0.4c0.2-0.6,0.5-1.2,0.7-1.8c-0.4,0.1-0.8,0.2-1.2,0.2c-0.1,0-0.1,0.1-0.1,0.1
	c-0.1,0.4-0.3,0.8-0.4,1.2c-0.1,0-0.1-0.1-0.1-0.1c-0.2-0.3-0.5-0.5-0.7-0.8c-0.1-0.1-0.2-0.1-0.3-0.1c-0.3,0.1-0.7,0.1-1,0.2
	c0,0-0.1,0-0.1,0c0,0,0,0.1,0.1,0.1c0.5,0.5,1.1,1.1,1.6,1.6c0.1,0.1,0.1,0.1,0,0.2c-0.2,0.5-0.4,1.1-0.6,1.6
	c-0.1,0.2-0.2,0.5-0.3,0.7c0.2-0.1,0.5-0.1,0.7-0.1c0.2,0,0.4,0,0.5-0.1c0.1-0.1,0.1-0.3,0.2-0.5c0.1-0.3,0.2-0.6,0.3-1
	c0.1,0.1,0.1,0.1,0.1,0.1c0.3,0.3,0.6,0.7,0.9,1c0,0,0.1,0.1,0.1,0.1C21.8,25.7,22.1,25.6,22.6,25.5z M38.8,22.1
	c0.5,0,1-0.2,1.3-0.4c0.5-0.4,0.6-0.9,0.5-1.5c-0.2-0.5-0.5-0.8-1.1-0.9c-0.3,0-0.6,0-1-0.1c-0.2-0.1-0.3-0.2-0.3-0.4
	c0-0.2,0.1-0.4,0.3-0.5c0.3-0.1,0.4,0,0.6,0.3c0,0.1,0,0.1,0.1,0.1c0.3-0.1,0.6-0.2,0.9-0.3c0.1,0,0.1-0.1,0.1-0.1
	c-0.1-0.2-0.2-0.3-0.4-0.5c-0.6-0.5-1.6-0.5-2.2,0.1c-0.4,0.4-0.5,0.8-0.4,1.3c0.1,0.5,0.4,0.8,0.9,0.9c0.1,0,0.3,0,0.4,0
	c0.3,0,0.5,0,0.8,0.1c0.2,0,0.3,0.1,0.3,0.3c0,0.2,0,0.3-0.2,0.4c-0.4,0.2-0.7,0.1-0.9-0.3c0-0.1-0.1-0.1-0.2-0.1
	c-0.3,0.1-0.5,0.2-0.8,0.3c-0.1,0-0.1,0.1-0.1,0.1C37.7,21.8,38.1,22.1,38.8,22.1z M35.3,18.3c-0.5,0-0.9,0.1-1.2,0.4
	c-0.5,0.4-0.7,0.9-0.5,1.5c0.1,0.5,0.5,0.8,1.2,0.9c0.3,0,0.6,0,0.9,0.1c0.2,0,0.3,0.1,0.4,0.3c0,0.2,0,0.3-0.2,0.4
	c-0.3,0.2-0.7,0.1-0.9-0.2c0,0,0-0.1-0.1-0.1c-0.3,0.1-0.6,0.2-0.9,0.3c-0.1,0-0.1,0,0,0.1c0.2,0.4,0.5,0.8,0.9,0.9
	c0.5,0.1,1,0,1.5-0.2c0.9-0.5,0.9-1.5,0.5-2c-0.3-0.3-0.7-0.4-1.1-0.5c-0.3,0-0.5,0-0.8-0.1c-0.2,0-0.3-0.2-0.4-0.4
	c0-0.2,0.1-0.4,0.3-0.5c0.3-0.1,0.5,0,0.6,0.3c0,0.1,0,0.1,0.1,0.1c0.3-0.1,0.6-0.2,0.9-0.3c0.1,0,0.1-0.1,0.1-0.1
	C36.2,18.6,35.8,18.3,35.3,18.3z M21.5,18.1c-0.1,0.1-0.3,0.2-0.4,0.3c-0.2,0.1-0.4,0-0.5-0.3c0-0.1,0-0.1,0-0.2
	c-0.1-0.6-0.3-1.3-0.4-1.9c0-0.1,0-0.2,0.1-0.2c0.2,0,0.4-0.1,0.6-0.1c0.1,0,0.1-0.1,0.1-0.2c-0.1-0.2-0.1-0.5-0.2-0.7
	c0-0.1-0.1-0.1-0.1-0.1c-0.2,0.1-0.4,0.1-0.6,0.1c-0.1,0-0.1,0-0.2-0.1c-0.1-0.3-0.1-0.5-0.2-0.8c0-0.1-0.1-0.1-0.2-0.1
	c-0.3,0.1-0.6,0.1-0.9,0.2c-0.1,0-0.1,0-0.1,0.1c0.1,0.2,0.1,0.5,0.2,0.8c0,0.2,0,0.2-0.2,0.3c-0.1,0-0.1,0-0.2,0.1
	c-0.1,0-0.1,0.1-0.1,0.1c0.1,0.2,0.1,0.5,0.2,0.7c0,0.1,0.1,0.1,0.2,0.1c0.1,0,0.2,0,0.3-0.1c0.1,0,0.1,0,0.1,0.1
	c0.1,0.7,0.3,1.3,0.4,2c0.1,0.5,0.3,0.9,0.9,1.1c0.5,0.1,0.9,0,1.3-0.2c0.1,0,0.1-0.1,0-0.1C21.6,18.6,21.6,18.3,21.5,18.1z
	 M29.1,11.1c-0.3,0.1-0.6,0.1-0.9,0.2c-0.1,0-0.2,0.1-0.1,0.2c0.2,0.9,0.4,1.8,0.6,2.7c0.2,1,0.4,2,0.6,2.9c0,0.1,0.1,0.2,0.2,0.1
	c0.3-0.1,0.6-0.1,0.8-0.2c0.1,0,0.1-0.1,0.1-0.2c-0.3-1.2-0.5-2.4-0.8-3.5C29.5,12.7,29.3,12,29.1,11.1
	C29.2,11.2,29.2,11.1,29.1,11.1z M26.7,14.2c0-0.2-0.1-0.4-0.1-0.6c0-0.1,0-0.1-0.1-0.1c-0.3,0.1-0.6,0.1-1,0.2
	c-0.1,0-0.1,0-0.1,0.1c0.1,0.3,0.1,0.5,0.2,0.8c0.2,1.1,0.5,2.2,0.7,3.3c0,0.1,0.1,0.1,0.2,0.1c0.3-0.1,0.6-0.1,0.9-0.2
	c0.1,0,0.1-0.1,0.1-0.2c-0.1-0.6-0.3-1.2-0.4-1.8c-0.2-0.8,0.4-1.5,1.2-1.6c0.1,0,0.1,0,0.1-0.1c-0.1-0.3-0.1-0.6-0.2-1
	c0-0.1,0-0.1-0.1-0.1c-0.3,0.1-0.6,0.2-0.8,0.4C27,13.7,26.9,13.9,26.7,14.2z M29.2,20.8c-0.1-0.4-0.2-0.7-0.2-1
	c0-0.1,0-0.1-0.1-0.1c-0.4,0.1-0.7,0.3-1,0.7c-0.1,0.1-0.2,0.3-0.3,0.4c0-0.2-0.1-0.4-0.1-0.6c0-0.1,0-0.1-0.1-0.1
	c-0.3,0.1-0.6,0.1-0.9,0.2c-0.1,0-0.1,0-0.1,0.1c0.3,1.3,0.6,2.7,0.9,4c0,0.1,0.1,0.1,0.2,0.1c0.3-0.1,0.6-0.1,0.9-0.2
	c0.1,0,0.1,0,0.1-0.1c-0.1-0.6-0.3-1.2-0.4-1.8c-0.1-0.5,0-1,0.4-1.4C28.6,20.8,28.8,20.7,29.2,20.8z M30.3,12.7
	c0.1,0.2,0.1,0.5,0.2,0.7c0.2,1.1,0.5,2.3,0.7,3.4c0,0.1,0,0.1,0.1,0.1c0.3-0.1,0.6-0.1,0.9-0.2c0.1,0,0.1,0,0.1-0.1
	c-0.2-0.8-0.4-1.7-0.5-2.5c-0.1-0.5-0.2-1-0.3-1.5c0,0,0-0.2-0.1-0.1C31,12.5,30.7,12.6,30.3,12.7C30.3,12.6,30.3,12.7,30.3,12.7z
	 M14.6,20.4C14.6,20.4,14.6,20.4,14.6,20.4c-0.3-1.4-0.6-2.8-0.9-4.1c0-0.1-0.1-0.1-0.1-0.1c-0.3,0.1-0.6,0.1-0.9,0.2
	c-0.1,0-0.1,0.1-0.1,0.2c0.3,1.3,0.6,2.7,0.9,4c0,0.1,0.1,0.1,0.2,0.1C13.9,20.6,14.2,20.6,14.6,20.4C14.5,20.5,14.6,20.5,14.6,20.4
	z M31.3,11.7c-0.1-0.3-0.1-0.6-0.2-0.9c0-0.1-0.1,0-0.1,0c-0.3,0.1-0.6,0.1-0.9,0.2c-0.1,0-0.1,0.1-0.1,0.1c0.1,0.3,0.1,0.5,0.2,0.8
	c0,0.1,0,0.1,0.1,0.1C30.6,11.9,30.9,11.9,31.3,11.7C31.2,11.8,31.3,11.8,31.3,11.7z M12.5,15.8c0.3-0.1,0.7-0.1,1-0.2
	c0.1,0,0.1-0.1,0.1-0.1c-0.1-0.3-0.1-0.6-0.2-0.9c0-0.1,0-0.1-0.1-0.1c-0.3,0.1-0.6,0.1-1,0.2c-0.1,0-0.1,0-0.1,0.1
	C12.3,15.1,12.3,15.4,12.5,15.8C12.4,15.8,12.4,15.8,12.5,15.8z"/>
<path fill="#FEFEFF" d="M40,10.6C40,10.6,40,10.6,40,10.6C40,10.6,40,10.6,40,10.6C40,10.6,40,10.6,40,10.6C40,10.6,40,10.6,40,10.6
	z"/>
<path fill="#0957A4" d="M25.2,23.4c0,0.2,0,0.3-0.1,0.4c-0.1,0.4-0.6,0.6-1,0.4c-0.2-0.1-0.4-0.3-0.4-0.6c-0.1-0.4-0.2-0.8-0.3-1.3
	c0,0,0-0.1,0-0.1c0.1-0.3,0.3-0.5,0.6-0.6c0.3-0.1,0.6,0.1,0.7,0.3C25.1,22.4,25.2,22.9,25.2,23.4z"/>
<path fill="#0957A4" d="M22.5,15.8c0-0.4,0.2-0.7,0.5-0.8c0.4-0.1,0.7,0,0.9,0.4c0.2,0.4,0.2,0.4-0.2,0.5c-0.3,0.1-0.6,0.1-1,0.2
	C22.6,16.1,22.5,16,22.5,15.8C22.5,15.8,22.5,15.8,22.5,15.8z"/>
<path fill="#0957A4" d="M30.5,20.9c0-0.5,0.3-0.9,0.7-0.9c0.4,0,0.5,0.2,0.7,0.5c0.1,0.3,0.1,0.3-0.2,0.3c-0.3,0.1-0.7,0.1-1,0.2
	C30.5,21.2,30.5,21.1,30.5,20.9C30.5,20.9,30.5,20.9,30.5,20.9z"/>
<path fill="#0957A4" d="M16,23.2c0.3,0,0.5,0.1,0.6,0.4c0,0.1,0.1,0.1,0.1,0.2c0.1,0.2,0.1,0.2-0.2,0.3c-0.4,0.1-0.8,0.2-1.1,0.2
	c-0.1,0-0.1,0-0.1-0.1c0-0.2,0-0.4,0.1-0.6C15.5,23.4,15.7,23.2,16,23.2z"/>
</svg>
